<svg width="48" height="48" viewBox="0 0 48 48" fill="none" xmlns="http://www.w3.org/2000/svg">
<path d="M1.5 36.75H46.5V41.25H1.5V36.75Z" fill="#89C3D5"/>
<path d="M37.5 11.25H25.5C24.6716 11.25 24 11.9216 24 12.75V24.75C24 25.5784 24.6716 26.25 25.5 26.25H37.5C38.3284 26.25 39 25.5784 39 24.75V12.75C39 11.9216 38.3284 11.25 37.5 11.25Z" fill="#04607A"/>
<path d="M46.5 34.5C46.4984 33.9037 46.2609 33.3324 45.8392 32.9108C45.4176 32.4891 44.8462 32.2516 44.25 32.25H1.5V36.75H46.5V34.5Z" fill="#ADECFF"/>
<path d="M12.75 32.25C12.75 30.8576 12.1969 29.5223 11.2123 28.5377C10.2277 27.5531 8.89239 27 7.5 27H5.25C4.25544 27 3.30161 27.3951 2.59835 28.0983C1.89509 28.8016 1.5 29.7554 1.5 30.75V32.25H12.75Z" fill="#8EC7D8"/>
<path d="M1.5 47.25C1.30109 47.25 1.11032 47.171 0.96967 47.0303C0.829018 46.8897 0.75 46.6989 0.75 46.5V18C0.75 17.8011 0.829018 17.6103 0.96967 17.4697C1.11032 17.329 1.30109 17.25 1.5 17.25C1.69891 17.25 1.88968 17.329 2.03033 17.4697C2.17098 17.6103 2.25 17.8011 2.25 18V46.5C2.25 46.6989 2.17098 46.8897 2.03033 47.0303C1.88968 47.171 1.69891 47.25 1.5 47.25ZM46.5 47.25C46.3011 47.25 46.1103 47.171 45.9697 47.0303C45.829 46.8897 45.75 46.6989 45.75 46.5V27C45.75 26.8011 45.829 26.6103 45.9697 26.4697C46.1103 26.329 46.3011 26.25 46.5 26.25C46.6989 26.25 46.8897 26.329 47.0303 26.4697C47.171 26.6103 47.25 26.8011 47.25 27V46.5C47.25 46.6989 47.171 46.8897 47.0303 47.0303C46.8897 47.171 46.6989 47.25 46.5 47.25Z" fill="#4794AA"/>
<path opacity="0.15" d="M24 17.367V24.75C24.0012 25.1475 24.1596 25.5283 24.4407 25.8094C24.7217 26.0904 25.1025 26.2488 25.5 26.25H33L36 23.25L27.0585 14.3085L24 17.367Z" fill="#4794AA"/>
<path d="M33 14.25V17.25H30V14.25H27V23.25H30V20.25H33V23.25H36V14.25H33Z" fill="#E9FAFF"/>
<path opacity="0.15" d="M33 14.25L30 17.25H33V14.25ZM2.25 36.75H45.75V38.25H2.25V36.75Z" fill="#4794AA"/>
</svg>
