<svg width="48" height="48" viewBox="0 0 48 48" fill="none" xmlns="http://www.w3.org/2000/svg">
<path d="M15.0086 1.5C22.4681 1.5 28.5139 3.018 28.5139 5.11875C28.5139 5.22525 28.4876 5.25 28.4576 5.25H28.5004V27.1155C23.2639 27.6405 19.5004 29.0408 19.5004 30.6953V38.7833C18.0941 38.9235 16.5829 38.9985 15.0049 38.9993C7.54464 38.9993 1.50489 37.2953 1.50489 35.1945V5.30175C1.50039 3.20175 7.54839 1.5 15.0086 1.5Z" fill="#8EC7D8"/>
<path opacity="0.1" d="M15.0086 1.5C22.4681 1.5 28.5139 3.018 28.5139 5.11875C28.5139 5.22525 28.4876 5.25 28.4576 5.25H28.5004V27.1155C23.2639 27.6405 19.5004 29.0408 19.5004 30.6953V38.7833C18.0941 38.9235 16.5829 38.9985 15.0049 38.9993C7.54464 38.9993 1.50489 37.2953 1.50489 35.1945V5.30175C1.50039 3.20175 7.54839 1.5 15.0086 1.5Z" fill="#4794AA"/>
<path opacity="0.1" d="M14.994 14.244C22.4505 14.244 28.494 12.5393 28.494 10.4385V11.9385C28.494 14.0385 22.4505 15.7433 14.994 15.7433C7.5375 15.7433 1.494 14.0385 1.494 11.9385V10.4385C1.49175 12.54 7.53825 14.2433 14.994 14.244ZM14.994 20.244C22.4505 20.244 28.494 18.5393 28.494 16.4385V17.9385C28.494 20.0385 22.449 21.7425 14.994 21.7425C7.53901 21.7425 1.494 20.0393 1.494 17.9385V16.4385C1.491 18.5393 7.53825 20.244 14.994 20.244ZM14.9948 26.244C22.4505 26.244 28.4948 24.5393 28.4948 22.4385V23.9385C28.4948 26.0385 22.4505 27.7433 14.9948 27.7433C7.539 27.7433 1.49475 26.0385 1.49475 23.9385V22.4385C1.491 24.5393 7.53825 26.2433 14.9948 26.244ZM14.9948 32.244C22.4505 32.244 28.4948 30.54 28.4948 28.4393V29.9393C28.4948 32.0393 22.4498 33.744 14.9948 33.744C7.53975 33.744 1.49475 32.0393 1.49475 29.9393V28.4393C1.491 30.54 7.53825 32.2433 14.9948 32.244Z" fill="#00232D"/>
<path d="M33.0105 26.892C40.4662 26.892 46.5105 28.467 46.5105 30.5632C46.5105 30.6705 46.4873 30.7485 46.4573 30.7485H46.5V42.699C46.5 44.7983 40.4595 46.5 33 46.5C25.5405 46.5 19.5 44.796 19.5 42.6968V30.6945C19.5 28.5945 25.554 26.892 33.0105 26.892Z" fill="#8EC7D8"/>
<path opacity="0.1" d="M33 39.75C40.4557 39.75 46.5 38.0453 46.5 35.9445V37.4445C46.5 39.543 40.4573 41.25 33 41.25C25.5428 41.25 19.5 39.5453 19.5 37.4453V35.9453C19.5 38.043 25.5457 39.75 33 39.75Z" fill="#00232D"/>
<path opacity="0.3" d="M14.9932 9.10576C22.4524 9.10576 28.4992 7.40265 28.4992 5.30176C28.4992 3.20087 22.4524 1.49776 14.9932 1.49776C7.53409 1.49776 1.48724 3.20087 1.48724 5.30176C1.48724 7.40265 7.53409 9.10576 14.9932 9.10576Z" fill="white"/>
<path opacity="0.3" d="M33.0008 34.4993C40.4574 34.4993 46.5023 32.7961 46.5023 30.6952C46.5023 28.5944 40.4574 26.8913 33.0008 26.8913C25.5441 26.8913 19.4993 28.5944 19.4993 30.6952C19.4993 32.7961 25.5441 34.4993 33.0008 34.4993Z" fill="white"/>
<path opacity="0.1" d="M19.5 30.7065V42.699C19.5 44.7982 25.5457 46.5 33 46.5V34.5C25.5593 34.5 19.5255 32.8012 19.5 30.7065Z" fill="#4794AA"/>
<path opacity="0.1" d="M15.0053 39C16.5803 39 18.0945 38.925 19.5008 38.784V30.6945C19.505 30.5057 19.5541 30.3206 19.644 30.1545L19.6388 30.1492L10.9628 38.8252C12.2385 38.9385 13.5968 39 15.0053 39Z" fill="#4794AA"/>
</svg>
