<svg width="48" height="48" viewBox="0 0 48 48" fill="none" xmlns="http://www.w3.org/2000/svg">
<path d="M34.5 46.5C41.1274 46.5 46.5 41.1274 46.5 34.5C46.5 27.8726 41.1274 22.5 34.5 22.5C27.8726 22.5 22.5 27.8726 22.5 34.5C22.5 41.1274 27.8726 46.5 34.5 46.5Z" fill="#4794AA"/>
<path d="M26.0153 25.95L14.55 14.4877L4.47001 24.5677C2.56768 26.4811 1.49989 29.0696 1.49989 31.7677C1.49989 34.4659 2.56768 37.0544 4.47001 38.9677C6.3834 40.8701 8.97188 41.9379 11.67 41.9379C14.3681 41.9379 16.9566 40.8701 18.87 38.9677L22.545 35.2927C22.5233 35.0107 22.5 34.725 22.5 34.4377C22.4977 32.8611 22.8071 31.2996 23.4104 29.843C24.0136 28.3863 24.8989 27.0633 26.0153 25.95Z" fill="#C6E7F1"/>
<path d="M34.4373 22.5C34.7268 22.5 35.0103 22.5233 35.2946 22.5435L38.9696 18.8685C40.8719 16.9551 41.9397 14.3667 41.9397 11.6685C41.9397 8.9704 40.8719 6.38192 38.9696 4.46852C37.0562 2.5662 34.4677 1.49841 31.7696 1.49841C29.0714 1.49841 26.4829 2.5662 24.5696 4.46852L14.4873 14.55L25.9496 26.0153C27.0629 24.8989 28.3859 24.0137 29.8425 23.4104C31.2992 22.8071 32.8607 22.4977 34.4373 22.5Z" fill="#04607A"/>
<path opacity="0.15" d="M25.8483 25.95L10.0068 41.7937C11.6024 42.0606 13.2386 41.9435 14.7798 41.4521C16.3211 40.9606 17.7231 40.109 18.8696 38.9677L22.5446 35.2927C22.5228 35.0107 22.4996 34.725 22.4996 34.4377C22.4968 31.2951 23.731 28.2776 25.9353 26.0377L25.8483 25.95Z" fill="#4794AA"/>
<path d="M33.7496 38.9948C33.5507 38.9948 33.3599 38.9157 33.2193 38.7751L29.4693 35.0251C29.3327 34.8836 29.2571 34.6941 29.2588 34.4975C29.2605 34.3009 29.3394 34.1127 29.4785 33.9737C29.6175 33.8346 29.8056 33.7558 30.0023 33.754C30.1989 33.7523 30.3884 33.8279 30.5298 33.9646L33.7143 37.1513L39.1826 30.9968C39.248 30.9229 39.3273 30.8627 39.416 30.8195C39.5047 30.7762 39.601 30.7509 39.6995 30.7449C39.7979 30.7389 39.8966 30.7524 39.9899 30.7845C40.0832 30.8167 40.1692 30.8669 40.2431 30.9323C40.3169 30.9977 40.3772 31.077 40.4204 31.1657C40.4636 31.2544 40.489 31.3507 40.495 31.4492C40.501 31.5477 40.4875 31.6464 40.4553 31.7396C40.4232 31.8329 40.373 31.9189 40.3076 31.9928L34.3076 38.7428C34.2396 38.8194 34.1568 38.8812 34.064 38.9246C33.9713 38.9679 33.8706 38.9918 33.7683 38.9948H33.7496Z" fill="white"/>
</svg>
