<svg width="48" height="48" viewBox="0 0 48 48" fill="none" xmlns="http://www.w3.org/2000/svg">
<path d="M37.1842 35.25C29.148 33.7357 29.7075 32.166 29.7075 30.666L29.6917 30.657C29.2282 31.0972 28.7293 31.4986 28.2 31.857C27.0016 32.7965 25.5228 33.307 24 33.307C22.4772 33.307 20.9984 32.7965 19.8 31.857C19.2707 31.4986 18.7718 31.0972 18.3083 30.657L18.2925 30.666C18.2925 32.166 18.852 33.7357 10.8158 35.25C1.5 37.0042 1.5 43.5 1.5 43.5V46.5H46.5V43.5C46.5 43.5 46.5 37.0042 37.1842 35.25Z" fill="#9ED4E4"/>
<path d="M19.875 39.3735H17.625V37.1235H15.375V39.3735H13.125V41.6235H15.375V43.8735H17.625V41.6235H19.875V39.3735Z" fill="#04607A"/>
<path d="M34.5 16.509V12L28.9853 10.5H19.0155L13.5 12V16.5082C11.2395 16.548 11.25 19.545 11.25 20.2493C11.25 20.9535 12.1553 23.9708 14.4248 23.9993H33.5753C35.8447 23.9715 36.75 20.958 36.75 20.25C36.75 19.542 36.7605 16.5487 34.5 16.509Z" fill="#DCF7FF"/>
<path d="M34.5 12.5363V9.00001C34.5 4.85026 30.9653 3.00001 27.9653 3.00001H19.686C18.8824 2.97446 18.0819 3.1108 17.332 3.40093C16.5822 3.69106 15.8984 4.12904 15.3212 4.68881C14.7441 5.24859 14.2855 5.91873 13.9726 6.65936C13.6597 7.4 13.499 8.196 13.5 9.00001V12.5378L34.5 12.5363Z" fill="#68AABD"/>
<path d="M23.998 13.5C27.3118 13.5 29.998 10.8137 29.998 7.5C29.998 4.18629 27.3118 1.5 23.998 1.5C20.6843 1.5 17.998 4.18629 17.998 7.5C17.998 10.8137 20.6843 13.5 23.998 13.5Z" fill="#9ED4E4"/>
<path d="M23.9993 9.00224C24.8277 9.00224 25.4993 8.33067 25.4993 7.50224C25.4993 6.67382 24.8277 6.00224 23.9993 6.00224C23.1708 6.00224 22.4993 6.67382 22.4993 7.50224C22.4993 8.33067 23.1708 9.00224 23.9993 9.00224Z" fill="#68AABD"/>
<path d="M23.25 33.2558V46.5H24.75V33.2558C24.2524 33.3253 23.7476 33.3253 23.25 33.2558Z" fill="#68AABD"/>
<path d="M29.2493 38.9985C29.6635 38.9985 29.9993 38.6627 29.9993 38.2485C29.9993 37.8343 29.6635 37.4985 29.2493 37.4985C28.835 37.4985 28.4993 37.8343 28.4993 38.2485C28.4993 38.6627 28.835 38.9985 29.2493 38.9985Z" fill="#68AABD"/>
<path opacity="0.15" d="M10.8158 35.25C1.5 37.0043 1.5 43.5 1.5 43.5V46.5H13.8458L29.6917 30.6548C29.2282 31.095 28.7293 31.4963 28.2 31.8548C27.0016 32.7942 25.5228 33.3048 24 33.3048C22.4772 33.3048 20.9984 32.7942 19.8 31.8548C19.2707 31.4963 18.7718 31.095 18.3083 30.6548L18.2925 30.6638C18.2925 32.1638 18.852 33.7343 10.8158 35.25Z" fill="#4794AA"/>
<path d="M14.4247 24C15.2134 27.1805 17.1217 29.9704 19.8 31.8585C20.9984 32.798 22.4772 33.3085 24 33.3085C25.5228 33.3085 27.0016 32.798 28.2 31.8585C30.8783 29.9704 32.7865 27.1805 33.5752 24H14.4247Z" fill="#68AABD"/>
<path opacity="0.15" d="M24 1.5C22.5413 1.49959 21.133 2.03316 20.0408 3H19.6875C18.8838 2.97425 18.0831 3.11044 17.3331 3.40047C16.5831 3.69051 15.899 4.12845 15.3218 4.68825C14.7445 5.24805 14.2857 5.91826 13.9727 6.659C13.6597 7.39974 13.499 8.19586 13.5 9V16.509C11.2395 16.5487 11.25 19.5457 11.25 20.25C11.25 20.9543 12.1553 23.9715 14.4248 24C15.2135 27.1805 17.1217 29.9704 19.8 31.8585C21.0053 32.7852 22.4797 33.2942 24 33.3083V1.5Z" fill="#4794AA"/>
</svg>
