<svg width="48" height="48" viewBox="0 0 48 48" fill="none" xmlns="http://www.w3.org/2000/svg">
<path d="M5.08124 5.86575L23.8312 1.539C23.942 1.51347 24.0572 1.51347 24.168 1.539L42.918 5.8665C43.0838 5.90461 43.2318 5.99798 43.3375 6.13127C43.4433 6.26456 43.5006 6.42985 43.5 6.6V18.0487C43.3704 24.1747 41.456 30.1297 37.9914 35.1836C34.5268 40.2374 29.6627 44.1703 23.9955 46.5C18.3297 44.1693 13.4672 40.2359 10.0043 35.1821C6.54127 30.1283 4.62833 24.1738 4.49999 18.0487V6.6C4.4992 6.42982 4.55631 6.26444 4.66194 6.13101C4.76756 5.99758 4.91543 5.90404 5.08124 5.86575Z" fill="#8EC7D8"/>
<path d="M29.2497 13.5C28.1133 13.5054 27.0049 13.8527 26.0686 14.4966C25.1322 15.1406 24.4114 16.0513 23.9997 17.1105C23.588 16.0513 22.8671 15.1406 21.9308 14.4966C20.9944 13.8527 19.886 13.5054 18.7497 13.5C17.3353 13.5223 15.9876 14.1054 15.0031 15.1212C14.0186 16.1369 13.4778 17.5021 13.4997 18.9165C13.4997 23.6108 17.3494 28.305 23.9997 33C30.6499 28.305 34.4997 23.6108 34.4997 18.9165C34.5215 17.5021 33.9807 16.1369 32.9962 15.1212C32.0117 14.1054 30.6641 13.5223 29.2497 13.5Z" fill="#04607A"/>
<path opacity="0.16" d="M23.8313 1.539L5.08126 5.8665C4.91557 5.90476 4.7678 5.99819 4.66218 6.13146C4.55657 6.26474 4.49939 6.42995 4.5 6.6V18.0487C4.62834 24.1738 6.54129 30.1283 10.0043 35.1821C13.4672 40.2359 18.3297 44.1693 23.9955 46.5H24V1.539C23.9439 1.53275 23.8873 1.53275 23.8313 1.539Z" fill="#4794AA"/>
</svg>
