<svg width="48" height="48" viewBox="0 0 48 48" fill="none" xmlns="http://www.w3.org/2000/svg">
<path d="M24 1.5C19.5499 1.5 15.1998 2.8196 11.4997 5.29193C7.79957 7.76427 4.91569 11.2783 3.21272 15.3896C1.50975 19.501 1.06417 24.025 1.93234 28.3895C2.80051 32.7541 4.94343 36.7632 8.09011 39.9099C11.2368 43.0566 15.2459 45.1995 19.6105 46.0677C23.9751 46.9358 28.4991 46.4903 32.6104 44.7873C36.7217 43.0843 40.2357 40.2004 42.7081 36.5003C45.1804 32.8002 46.5 28.4501 46.5 24C46.5 18.0326 44.1295 12.3097 39.9099 8.0901C35.6903 3.87053 29.9674 1.5 24 1.5ZM24 42C20.4399 42 16.9598 40.9443 13.9997 38.9665C11.0397 36.9886 8.73256 34.1774 7.37018 30.8883C6.0078 27.5992 5.65134 23.98 6.34587 20.4884C7.04041 16.9967 8.75474 13.7894 11.2721 11.2721C13.7894 8.75473 16.9967 7.0404 20.4884 6.34586C23.98 5.65133 27.5992 6.00779 30.8883 7.37017C34.1774 8.73255 36.9886 11.0397 38.9665 13.9997C40.9443 16.9598 42 20.4399 42 24C42 28.7739 40.1036 33.3523 36.7279 36.7279C33.3523 40.1036 28.7739 42 24 42Z" fill="#04607A"/>
<path d="M24 42C33.9411 42 42 33.9411 42 24C42 14.0589 33.9411 6 24 6C14.0589 6 6 14.0589 6 24C6 33.9411 14.0589 42 24 42Z" fill="#C6E7F1"/>
<path opacity="0.15" d="M32.0397 29.754L31.2005 29.595C30.8555 28.8675 30.3031 28.2582 29.6127 27.8437L24.6402 24.474V13.9627C24.6396 13.6268 24.5278 13.3005 24.3225 13.0346C24.1171 12.7687 23.8296 12.5782 23.5047 12.4927L23.4755 11.4495L22.184 12.75V12.7575C21.9981 12.8988 21.8473 13.081 21.7432 13.29C21.6392 13.499 21.5847 13.7292 21.584 13.9627V26.3617L29.2925 30.993C29.5041 31.099 29.7375 31.1542 29.9742 31.1542C30.1787 31.1678 30.3836 31.1355 30.5739 31.0597C30.7643 30.9839 30.9353 30.8666 31.0745 30.7162L32.0397 29.754Z" fill="#4794AA"/>
<path d="M31.5 30C31.3642 29.9998 31.2309 29.9627 31.1145 29.8927L23.6145 25.3927C23.5034 25.3262 23.4115 25.232 23.3476 25.1194C23.2837 25.0067 23.2501 24.8795 23.25 24.75V12C23.25 11.8011 23.329 11.6103 23.4697 11.4697C23.6103 11.329 23.8011 11.25 24 11.25C24.1989 11.25 24.3897 11.329 24.5303 11.4697C24.671 11.6103 24.75 11.8011 24.75 12V24.3255L31.8862 28.6073C32.0267 28.6917 32.1357 28.8199 32.1964 28.9722C32.2571 29.1245 32.2663 29.2925 32.2225 29.4504C32.1787 29.6084 32.0843 29.7477 31.9538 29.8469C31.8233 29.9462 31.6639 29.9999 31.5 30Z" fill="#4794AA"/>
</svg>
